<svg xmlns="http://www.w3.org/2000/svg" width="640" height="480" viewBox="0 0 640 480" role="img" aria-label="Oven heating element spare part">
  <rect width="640" height="480" fill="#f8f5ef"/>
  <path d="M166 292c-58-68-24-166 68-184 65-13 108 32 108 82 0 46-34 75-77 75-32 0-59-20-59-50 0-26 22-45 48-45 28 0 51 22 51 52 0 74-68 136-152 120" fill="none" stroke="#333c44" stroke-width="30" stroke-linecap="round"/>
  <path d="M352 294c58-68 24-166-68-184-65-13-108 32-108 82" fill="none" stroke="#c86b3c" stroke-width="13" stroke-linecap="round"/>
  <rect x="432" y="204" width="104" height="74" rx="12" fill="#333c44"/>
  <path d="M456 304h18m36 0h18" stroke="#c86b3c" stroke-width="12" stroke-linecap="round"/>
</svg>
